<mxfile host="app.diagrams.net" agent="Mozilla/5.0 (Windows NT 10.0; Win64; x64) AppleWebKit/537.36 (KHTML, like Gecko) Chrome/139.0.0.0 Safari/537.36" version="28.1.0">
  <diagram name="第 1 页" id="i-cfCnopcMzz3AIYVEaQ">
    <mxGraphModel dx="1426" dy="785" grid="1" gridSize="10" guides="1" tooltips="1" connect="1" arrows="1" fold="1" page="1" pageScale="1" pageWidth="827" pageHeight="1169" math="0" shadow="0">
      <root>
        <mxCell id="0" />
        <mxCell id="1" parent="0" />
        <mxCell id="-lkn3_LBiKoSfGiSCwf5-1" value="1" style="ellipse;whiteSpace=wrap;html=1;aspect=fixed;" vertex="1" parent="1">
          <mxGeometry x="320" y="80" width="40" height="40" as="geometry" />
        </mxCell>
        <mxCell id="-lkn3_LBiKoSfGiSCwf5-2" value="2" style="ellipse;whiteSpace=wrap;html=1;aspect=fixed;" vertex="1" parent="1">
          <mxGeometry x="240" y="160" width="40" height="40" as="geometry" />
        </mxCell>
        <mxCell id="-lkn3_LBiKoSfGiSCwf5-3" value="5" style="ellipse;whiteSpace=wrap;html=1;aspect=fixed;" vertex="1" parent="1">
          <mxGeometry x="400" y="160" width="40" height="40" as="geometry" />
        </mxCell>
        <mxCell id="-lkn3_LBiKoSfGiSCwf5-4" value="3" style="ellipse;whiteSpace=wrap;html=1;aspect=fixed;" vertex="1" parent="1">
          <mxGeometry x="200" y="240" width="40" height="40" as="geometry" />
        </mxCell>
        <mxCell id="-lkn3_LBiKoSfGiSCwf5-5" value="4" style="ellipse;whiteSpace=wrap;html=1;aspect=fixed;" vertex="1" parent="1">
          <mxGeometry x="280" y="240" width="40" height="40" as="geometry" />
        </mxCell>
        <mxCell id="-lkn3_LBiKoSfGiSCwf5-7" value="6" style="ellipse;whiteSpace=wrap;html=1;aspect=fixed;" vertex="1" parent="1">
          <mxGeometry x="440" y="240" width="40" height="40" as="geometry" />
        </mxCell>
        <mxCell id="-lkn3_LBiKoSfGiSCwf5-9" value="" style="endArrow=none;html=1;rounded=0;entryX=0;entryY=1;entryDx=0;entryDy=0;exitX=1;exitY=0;exitDx=0;exitDy=0;" edge="1" parent="1" source="-lkn3_LBiKoSfGiSCwf5-2" target="-lkn3_LBiKoSfGiSCwf5-1">
          <mxGeometry width="50" height="50" relative="1" as="geometry">
            <mxPoint x="275" y="160" as="sourcePoint" />
            <mxPoint x="320" y="120" as="targetPoint" />
          </mxGeometry>
        </mxCell>
        <mxCell id="-lkn3_LBiKoSfGiSCwf5-10" value="" style="endArrow=none;html=1;rounded=0;exitX=0.725;exitY=-0.05;exitDx=0;exitDy=0;exitPerimeter=0;" edge="1" parent="1" source="-lkn3_LBiKoSfGiSCwf5-4">
          <mxGeometry width="50" height="50" relative="1" as="geometry">
            <mxPoint x="210" y="240" as="sourcePoint" />
            <mxPoint x="250" y="200" as="targetPoint" />
          </mxGeometry>
        </mxCell>
        <mxCell id="-lkn3_LBiKoSfGiSCwf5-11" value="" style="endArrow=none;html=1;rounded=0;exitX=0.275;exitY=-0.025;exitDx=0;exitDy=0;exitPerimeter=0;entryX=1;entryY=1;entryDx=0;entryDy=0;" edge="1" parent="1" source="-lkn3_LBiKoSfGiSCwf5-5" target="-lkn3_LBiKoSfGiSCwf5-2">
          <mxGeometry width="50" height="50" relative="1" as="geometry">
            <mxPoint x="240" y="248" as="sourcePoint" />
            <mxPoint x="261" y="210" as="targetPoint" />
          </mxGeometry>
        </mxCell>
        <mxCell id="-lkn3_LBiKoSfGiSCwf5-12" value="" style="endArrow=none;html=1;rounded=0;" edge="1" parent="1">
          <mxGeometry width="50" height="50" relative="1" as="geometry">
            <mxPoint x="450" y="240" as="sourcePoint" />
            <mxPoint x="430" y="200" as="targetPoint" />
          </mxGeometry>
        </mxCell>
        <mxCell id="-lkn3_LBiKoSfGiSCwf5-13" value="" style="endArrow=none;html=1;rounded=0;entryX=1;entryY=1;entryDx=0;entryDy=0;exitX=0.2;exitY=0;exitDx=0;exitDy=0;exitPerimeter=0;" edge="1" parent="1" source="-lkn3_LBiKoSfGiSCwf5-3" target="-lkn3_LBiKoSfGiSCwf5-1">
          <mxGeometry width="50" height="50" relative="1" as="geometry">
            <mxPoint x="380" y="160" as="sourcePoint" />
            <mxPoint x="360" y="120" as="targetPoint" />
          </mxGeometry>
        </mxCell>
        <mxCell id="-lkn3_LBiKoSfGiSCwf5-72" value="&lt;div style=&quot;background-color:#1e1f22;color:#bcbec4&quot;&gt;&lt;pre style=&quot;font-family:&#39;Courier New&#39;,monospace;font-size:9.8pt;&quot;&gt;&lt;span style=&quot;color:#7a7e85;&quot;&gt;首先将根节点的右子树变成链表&lt;/span&gt;&lt;/pre&gt;&lt;/div&gt;" style="text;html=1;align=center;verticalAlign=middle;resizable=0;points=[];autosize=1;strokeColor=none;fillColor=none;" vertex="1" parent="1">
          <mxGeometry x="540" y="423" width="220" height="60" as="geometry" />
        </mxCell>
        <mxCell id="-lkn3_LBiKoSfGiSCwf5-74" value="2" style="ellipse;whiteSpace=wrap;html=1;aspect=fixed;" vertex="1" parent="1">
          <mxGeometry x="160" y="400" width="40" height="40" as="geometry" />
        </mxCell>
        <mxCell id="-lkn3_LBiKoSfGiSCwf5-75" value="3" style="ellipse;whiteSpace=wrap;html=1;aspect=fixed;" vertex="1" parent="1">
          <mxGeometry x="200" y="483" width="40" height="40" as="geometry" />
        </mxCell>
        <mxCell id="-lkn3_LBiKoSfGiSCwf5-76" value="4" style="ellipse;whiteSpace=wrap;html=1;aspect=fixed;" vertex="1" parent="1">
          <mxGeometry x="230" y="580" width="40" height="40" as="geometry" />
        </mxCell>
        <mxCell id="-lkn3_LBiKoSfGiSCwf5-77" value="" style="endArrow=none;html=1;rounded=0;entryX=1;entryY=1;entryDx=0;entryDy=0;exitX=0.35;exitY=0.05;exitDx=0;exitDy=0;exitPerimeter=0;" edge="1" parent="1" source="-lkn3_LBiKoSfGiSCwf5-75" target="-lkn3_LBiKoSfGiSCwf5-74">
          <mxGeometry width="50" height="50" relative="1" as="geometry">
            <mxPoint x="210" y="481" as="sourcePoint" />
            <mxPoint x="170" y="440" as="targetPoint" />
          </mxGeometry>
        </mxCell>
        <mxCell id="-lkn3_LBiKoSfGiSCwf5-79" value="" style="endArrow=none;html=1;rounded=0;exitX=0.7;exitY=0.95;exitDx=0;exitDy=0;exitPerimeter=0;entryX=0.5;entryY=0;entryDx=0;entryDy=0;" edge="1" parent="1" source="-lkn3_LBiKoSfGiSCwf5-75" target="-lkn3_LBiKoSfGiSCwf5-76">
          <mxGeometry width="50" height="50" relative="1" as="geometry">
            <mxPoint x="390" y="370" as="sourcePoint" />
            <mxPoint x="440" y="320" as="targetPoint" />
          </mxGeometry>
        </mxCell>
        <mxCell id="-lkn3_LBiKoSfGiSCwf5-80" value="1" style="ellipse;whiteSpace=wrap;html=1;aspect=fixed;" vertex="1" parent="1">
          <mxGeometry x="240" y="320" width="40" height="40" as="geometry" />
        </mxCell>
        <mxCell id="-lkn3_LBiKoSfGiSCwf5-81" value="" style="endArrow=none;html=1;rounded=0;exitX=1;exitY=0;exitDx=0;exitDy=0;entryX=-0.05;entryY=0.75;entryDx=0;entryDy=0;entryPerimeter=0;" edge="1" parent="1" source="-lkn3_LBiKoSfGiSCwf5-74" target="-lkn3_LBiKoSfGiSCwf5-80">
          <mxGeometry width="50" height="50" relative="1" as="geometry">
            <mxPoint x="240" y="420" as="sourcePoint" />
            <mxPoint x="290" y="370" as="targetPoint" />
          </mxGeometry>
        </mxCell>
        <mxCell id="-lkn3_LBiKoSfGiSCwf5-82" value="5" style="ellipse;whiteSpace=wrap;html=1;aspect=fixed;" vertex="1" parent="1">
          <mxGeometry x="326" y="396" width="40" height="40" as="geometry" />
        </mxCell>
        <mxCell id="-lkn3_LBiKoSfGiSCwf5-83" value="6" style="ellipse;whiteSpace=wrap;html=1;aspect=fixed;" vertex="1" parent="1">
          <mxGeometry x="366" y="476" width="40" height="40" as="geometry" />
        </mxCell>
        <mxCell id="-lkn3_LBiKoSfGiSCwf5-84" value="" style="endArrow=none;html=1;rounded=0;" edge="1" parent="1">
          <mxGeometry width="50" height="50" relative="1" as="geometry">
            <mxPoint x="376" y="476" as="sourcePoint" />
            <mxPoint x="356" y="436" as="targetPoint" />
          </mxGeometry>
        </mxCell>
        <mxCell id="-lkn3_LBiKoSfGiSCwf5-85" value="" style="endArrow=none;html=1;rounded=0;entryX=1;entryY=1;entryDx=0;entryDy=0;exitX=0.2;exitY=0;exitDx=0;exitDy=0;exitPerimeter=0;" edge="1" parent="1" source="-lkn3_LBiKoSfGiSCwf5-82">
          <mxGeometry width="50" height="50" relative="1" as="geometry">
            <mxPoint x="306" y="396" as="sourcePoint" />
            <mxPoint x="280" y="350" as="targetPoint" />
          </mxGeometry>
        </mxCell>
        <mxCell id="-lkn3_LBiKoSfGiSCwf5-86" value="&lt;div style=&quot;background-color:#1e1f22;color:#bcbec4&quot;&gt;&lt;pre style=&quot;font-family:&#39;Courier New&#39;,monospace;font-size:9.8pt;&quot;&gt;&lt;span style=&quot;color:#7a7e85;&quot;&gt;其次将根节点的右子树变成链表&lt;/span&gt;&lt;/pre&gt;&lt;/div&gt;" style="text;whiteSpace=wrap;html=1;" vertex="1" parent="1">
          <mxGeometry x="580" y="750" width="230" height="70" as="geometry" />
        </mxCell>
        <mxCell id="-lkn3_LBiKoSfGiSCwf5-87" value="2" style="ellipse;whiteSpace=wrap;html=1;aspect=fixed;" vertex="1" parent="1">
          <mxGeometry x="168" y="780" width="40" height="40" as="geometry" />
        </mxCell>
        <mxCell id="-lkn3_LBiKoSfGiSCwf5-88" value="3" style="ellipse;whiteSpace=wrap;html=1;aspect=fixed;" vertex="1" parent="1">
          <mxGeometry x="208" y="863" width="40" height="40" as="geometry" />
        </mxCell>
        <mxCell id="-lkn3_LBiKoSfGiSCwf5-89" value="4" style="ellipse;whiteSpace=wrap;html=1;aspect=fixed;" vertex="1" parent="1">
          <mxGeometry x="238" y="960" width="40" height="40" as="geometry" />
        </mxCell>
        <mxCell id="-lkn3_LBiKoSfGiSCwf5-90" value="" style="endArrow=none;html=1;rounded=0;entryX=1;entryY=1;entryDx=0;entryDy=0;exitX=0.35;exitY=0.05;exitDx=0;exitDy=0;exitPerimeter=0;" edge="1" parent="1" source="-lkn3_LBiKoSfGiSCwf5-88" target="-lkn3_LBiKoSfGiSCwf5-87">
          <mxGeometry width="50" height="50" relative="1" as="geometry">
            <mxPoint x="218" y="861" as="sourcePoint" />
            <mxPoint x="178" y="820" as="targetPoint" />
          </mxGeometry>
        </mxCell>
        <mxCell id="-lkn3_LBiKoSfGiSCwf5-91" value="" style="endArrow=none;html=1;rounded=0;exitX=0.7;exitY=0.95;exitDx=0;exitDy=0;exitPerimeter=0;entryX=0.5;entryY=0;entryDx=0;entryDy=0;" edge="1" parent="1" source="-lkn3_LBiKoSfGiSCwf5-88" target="-lkn3_LBiKoSfGiSCwf5-89">
          <mxGeometry width="50" height="50" relative="1" as="geometry">
            <mxPoint x="398" y="750" as="sourcePoint" />
            <mxPoint x="448" y="700" as="targetPoint" />
          </mxGeometry>
        </mxCell>
        <mxCell id="-lkn3_LBiKoSfGiSCwf5-92" value="1" style="ellipse;whiteSpace=wrap;html=1;aspect=fixed;" vertex="1" parent="1">
          <mxGeometry x="248" y="700" width="40" height="40" as="geometry" />
        </mxCell>
        <mxCell id="-lkn3_LBiKoSfGiSCwf5-93" value="" style="endArrow=none;html=1;rounded=0;exitX=1;exitY=0;exitDx=0;exitDy=0;entryX=-0.05;entryY=0.75;entryDx=0;entryDy=0;entryPerimeter=0;" edge="1" parent="1" source="-lkn3_LBiKoSfGiSCwf5-87" target="-lkn3_LBiKoSfGiSCwf5-92">
          <mxGeometry width="50" height="50" relative="1" as="geometry">
            <mxPoint x="248" y="800" as="sourcePoint" />
            <mxPoint x="298" y="750" as="targetPoint" />
          </mxGeometry>
        </mxCell>
        <mxCell id="-lkn3_LBiKoSfGiSCwf5-94" value="5" style="ellipse;whiteSpace=wrap;html=1;aspect=fixed;" vertex="1" parent="1">
          <mxGeometry x="334" y="776" width="40" height="40" as="geometry" />
        </mxCell>
        <mxCell id="-lkn3_LBiKoSfGiSCwf5-95" value="6" style="ellipse;whiteSpace=wrap;html=1;aspect=fixed;" vertex="1" parent="1">
          <mxGeometry x="374" y="856" width="40" height="40" as="geometry" />
        </mxCell>
        <mxCell id="-lkn3_LBiKoSfGiSCwf5-96" value="" style="endArrow=none;html=1;rounded=0;" edge="1" parent="1">
          <mxGeometry width="50" height="50" relative="1" as="geometry">
            <mxPoint x="384" y="856" as="sourcePoint" />
            <mxPoint x="364" y="816" as="targetPoint" />
          </mxGeometry>
        </mxCell>
        <mxCell id="-lkn3_LBiKoSfGiSCwf5-97" value="" style="endArrow=none;html=1;rounded=0;entryX=1;entryY=1;entryDx=0;entryDy=0;exitX=0.2;exitY=0;exitDx=0;exitDy=0;exitPerimeter=0;" edge="1" parent="1" source="-lkn3_LBiKoSfGiSCwf5-94">
          <mxGeometry width="50" height="50" relative="1" as="geometry">
            <mxPoint x="314" y="776" as="sourcePoint" />
            <mxPoint x="288" y="730" as="targetPoint" />
          </mxGeometry>
        </mxCell>
        <mxCell id="-lkn3_LBiKoSfGiSCwf5-98" value="&lt;div style=&quot;background-color:#1e1f22;color:#bcbec4&quot;&gt;&lt;pre style=&quot;font-family:&#39;Courier New&#39;,monospace;font-size:9.8pt;&quot;&gt;&lt;span style=&quot;color:#7a7e85;&quot;&gt;最后将变成链表的右子树放在变成链表的左子树的最右边&lt;/span&gt;&lt;/pre&gt;&lt;/div&gt;" style="text;whiteSpace=wrap;html=1;" vertex="1" parent="1">
          <mxGeometry x="610" y="1100" width="380" height="70" as="geometry" />
        </mxCell>
        <mxCell id="-lkn3_LBiKoSfGiSCwf5-100" value="2" style="ellipse;whiteSpace=wrap;html=1;aspect=fixed;" vertex="1" parent="1">
          <mxGeometry x="320" y="1160" width="40" height="40" as="geometry" />
        </mxCell>
        <mxCell id="-lkn3_LBiKoSfGiSCwf5-101" value="3" style="ellipse;whiteSpace=wrap;html=1;aspect=fixed;" vertex="1" parent="1">
          <mxGeometry x="360" y="1243" width="40" height="40" as="geometry" />
        </mxCell>
        <mxCell id="-lkn3_LBiKoSfGiSCwf5-102" value="4" style="ellipse;whiteSpace=wrap;html=1;aspect=fixed;" vertex="1" parent="1">
          <mxGeometry x="390" y="1340" width="40" height="40" as="geometry" />
        </mxCell>
        <mxCell id="-lkn3_LBiKoSfGiSCwf5-103" value="" style="endArrow=none;html=1;rounded=0;entryX=1;entryY=1;entryDx=0;entryDy=0;exitX=0.35;exitY=0.05;exitDx=0;exitDy=0;exitPerimeter=0;" edge="1" parent="1" source="-lkn3_LBiKoSfGiSCwf5-101" target="-lkn3_LBiKoSfGiSCwf5-100">
          <mxGeometry width="50" height="50" relative="1" as="geometry">
            <mxPoint x="370" y="1241" as="sourcePoint" />
            <mxPoint x="330" y="1200" as="targetPoint" />
          </mxGeometry>
        </mxCell>
        <mxCell id="-lkn3_LBiKoSfGiSCwf5-104" value="" style="endArrow=none;html=1;rounded=0;exitX=0.7;exitY=0.95;exitDx=0;exitDy=0;exitPerimeter=0;entryX=0.5;entryY=0;entryDx=0;entryDy=0;" edge="1" parent="1" source="-lkn3_LBiKoSfGiSCwf5-101" target="-lkn3_LBiKoSfGiSCwf5-102">
          <mxGeometry width="50" height="50" relative="1" as="geometry">
            <mxPoint x="550" y="1130" as="sourcePoint" />
            <mxPoint x="600" y="1080" as="targetPoint" />
          </mxGeometry>
        </mxCell>
        <mxCell id="-lkn3_LBiKoSfGiSCwf5-105" value="1" style="ellipse;whiteSpace=wrap;html=1;aspect=fixed;" vertex="1" parent="1">
          <mxGeometry x="270" y="1110" width="40" height="40" as="geometry" />
        </mxCell>
        <mxCell id="-lkn3_LBiKoSfGiSCwf5-107" value="5" style="ellipse;whiteSpace=wrap;html=1;aspect=fixed;" vertex="1" parent="1">
          <mxGeometry x="420" y="1430" width="40" height="40" as="geometry" />
        </mxCell>
        <mxCell id="-lkn3_LBiKoSfGiSCwf5-108" value="6" style="ellipse;whiteSpace=wrap;html=1;aspect=fixed;" vertex="1" parent="1">
          <mxGeometry x="460" y="1510" width="40" height="40" as="geometry" />
        </mxCell>
        <mxCell id="-lkn3_LBiKoSfGiSCwf5-109" value="" style="endArrow=none;html=1;rounded=0;" edge="1" parent="1">
          <mxGeometry width="50" height="50" relative="1" as="geometry">
            <mxPoint x="470" y="1510" as="sourcePoint" />
            <mxPoint x="450" y="1470" as="targetPoint" />
          </mxGeometry>
        </mxCell>
        <mxCell id="-lkn3_LBiKoSfGiSCwf5-111" value="" style="endArrow=none;html=1;rounded=0;exitX=1;exitY=1;exitDx=0;exitDy=0;entryX=0;entryY=0;entryDx=0;entryDy=0;" edge="1" parent="1" source="-lkn3_LBiKoSfGiSCwf5-105" target="-lkn3_LBiKoSfGiSCwf5-100">
          <mxGeometry width="50" height="50" relative="1" as="geometry">
            <mxPoint x="390" y="1070" as="sourcePoint" />
            <mxPoint x="440" y="1020" as="targetPoint" />
          </mxGeometry>
        </mxCell>
        <mxCell id="-lkn3_LBiKoSfGiSCwf5-113" value="" style="endArrow=none;html=1;rounded=0;exitX=0.25;exitY=0;exitDx=0;exitDy=0;exitPerimeter=0;entryX=1;entryY=1;entryDx=0;entryDy=0;" edge="1" parent="1" source="-lkn3_LBiKoSfGiSCwf5-107" target="-lkn3_LBiKoSfGiSCwf5-102">
          <mxGeometry width="50" height="50" relative="1" as="geometry">
            <mxPoint x="390" y="1270" as="sourcePoint" />
            <mxPoint x="440" y="1220" as="targetPoint" />
          </mxGeometry>
        </mxCell>
      </root>
    </mxGraphModel>
  </diagram>
</mxfile>
